M48
; DRILL file {KiCad (5.1.5)-3} date 09/28/20 00:58:30
; FORMAT={-:-/ absolute / inch / decimal}
; #@! TF.CreationDate,2020-09-28T00:58:30+02:00
; #@! TF.GenerationSoftware,Kicad,Pcbnew,(5.1.5)-3
; #@! TF.FileFunction,Plated,1,2,PTH
FMAT,2
INCH
T1C0.0320
T2C0.0600
%
G90
G05
T1
X6.4567Y-3.0768
X6.4567Y-3.5768
X5.803Y-3.8838
X5.4134Y-3.0768
X5.4134Y-3.5768
X6.1417Y-3.0768
X6.1417Y-3.5768
X5.5709Y-3.0768
X5.5709Y-3.5768
X5.303Y-3.8838
X5.403Y-3.8838
X6.2992Y-3.0768
X6.2992Y-3.5768
X5.803Y-3.4338
X5.903Y-3.4338
X5.903Y-3.8838
X5.803Y-4.3338
X5.903Y-4.3338
X6.253Y-3.8838
X6.353Y-3.8838
T2
X5.4058Y-4.9338
X6.1932Y-4.9338
T0
M30
