G04 #@! TF.GenerationSoftware,KiCad,Pcbnew,(5.1.5)-3*
G04 #@! TF.CreationDate,2020-09-28T00:58:47+02:00*
G04 #@! TF.ProjectId,joytester,6a6f7974-6573-4746-9572-2e6b69636164,rev?*
G04 #@! TF.SameCoordinates,Original*
G04 #@! TF.FileFunction,Legend,Bot*
G04 #@! TF.FilePolarity,Positive*
%FSLAX46Y46*%
G04 Gerber Fmt 4.6, Leading zero omitted, Abs format (unit mm)*
G04 Created by KiCad (PCBNEW (5.1.5)-3) date 2020-09-28 00:58:47*
%MOMM*%
%LPD*%
G04 APERTURE LIST*
%ADD10C,0.142240*%
%ADD11C,0.127000*%
G04 APERTURE END LIST*
D10*
X161713910Y-134301733D02*
X161472610Y-134382166D01*
X161070444Y-134382166D01*
X160909577Y-134301733D01*
X160829144Y-134221300D01*
X160748710Y-134060433D01*
X160748710Y-133899566D01*
X160829144Y-133738700D01*
X160909577Y-133658266D01*
X161070444Y-133577833D01*
X161392177Y-133497400D01*
X161553044Y-133416966D01*
X161633477Y-133336533D01*
X161713910Y-133175666D01*
X161713910Y-133014800D01*
X161633477Y-132853933D01*
X161553044Y-132773500D01*
X161392177Y-132693066D01*
X160990010Y-132693066D01*
X160748710Y-132773500D01*
X159381344Y-134301733D02*
X159542210Y-134382166D01*
X159863944Y-134382166D01*
X160024810Y-134301733D01*
X160105244Y-134140866D01*
X160105244Y-133497400D01*
X160024810Y-133336533D01*
X159863944Y-133256100D01*
X159542210Y-133256100D01*
X159381344Y-133336533D01*
X159300910Y-133497400D01*
X159300910Y-133658266D01*
X160105244Y-133819133D01*
X158577010Y-134382166D02*
X158577010Y-133256100D01*
X158577010Y-133577833D02*
X158496577Y-133416966D01*
X158416144Y-133336533D01*
X158255277Y-133256100D01*
X158094410Y-133256100D01*
X157531377Y-134382166D02*
X157531377Y-133256100D01*
X157531377Y-132693066D02*
X157611810Y-132773500D01*
X157531377Y-132853933D01*
X157450944Y-132773500D01*
X157531377Y-132693066D01*
X157531377Y-132853933D01*
X156003144Y-134382166D02*
X156003144Y-133497400D01*
X156083577Y-133336533D01*
X156244444Y-133256100D01*
X156566177Y-133256100D01*
X156727044Y-133336533D01*
X156003144Y-134301733D02*
X156164010Y-134382166D01*
X156566177Y-134382166D01*
X156727044Y-134301733D01*
X156807477Y-134140866D01*
X156807477Y-133980000D01*
X156727044Y-133819133D01*
X156566177Y-133738700D01*
X156164010Y-133738700D01*
X156003144Y-133658266D01*
X154957510Y-134382166D02*
X155118377Y-134301733D01*
X155198810Y-134140866D01*
X155198810Y-132693066D01*
X154314044Y-134221300D02*
X154233610Y-134301733D01*
X154314044Y-134382166D01*
X154394477Y-134301733D01*
X154314044Y-134221300D01*
X154314044Y-134382166D01*
X154314044Y-133336533D02*
X154233610Y-133416966D01*
X154314044Y-133497400D01*
X154394477Y-133416966D01*
X154314044Y-133336533D01*
X154314044Y-133497400D01*
D11*
X151797016Y-68720247D02*
X152026826Y-68720247D01*
X152141730Y-68777700D01*
X152199183Y-68835152D01*
X152314088Y-69007509D01*
X152371540Y-69237319D01*
X152371540Y-69696938D01*
X152314088Y-69811842D01*
X152256635Y-69869295D01*
X152141730Y-69926747D01*
X151911921Y-69926747D01*
X151797016Y-69869295D01*
X151739564Y-69811842D01*
X151682111Y-69696938D01*
X151682111Y-69409676D01*
X151739564Y-69294771D01*
X151797016Y-69237319D01*
X151911921Y-69179866D01*
X152141730Y-69179866D01*
X152256635Y-69237319D01*
X152314088Y-69294771D01*
X152371540Y-69409676D01*
X143916035Y-69926747D02*
X143686226Y-69926747D01*
X143571321Y-69869295D01*
X143513869Y-69811842D01*
X143398964Y-69639485D01*
X143341511Y-69409676D01*
X143341511Y-68950057D01*
X143398964Y-68835152D01*
X143456416Y-68777700D01*
X143571321Y-68720247D01*
X143801130Y-68720247D01*
X143916035Y-68777700D01*
X143973488Y-68835152D01*
X144030940Y-68950057D01*
X144030940Y-69237319D01*
X143973488Y-69352223D01*
X143916035Y-69409676D01*
X143801130Y-69467128D01*
X143571321Y-69467128D01*
X143456416Y-69409676D01*
X143398964Y-69352223D01*
X143341511Y-69237319D01*
M02*
